<svg xmlns="http://www.w3.org/2000/svg" xmlns:xlink="http://www.w3.org/1999/xlink" viewBox="0,0,256,256" width="100px" height="100px"><g fill="#2ff3ff" fill-rule="nonzero" stroke="none" stroke-width="1" stroke-linecap="butt" stroke-linejoin="miter" stroke-miterlimit="10" stroke-dasharray="" stroke-dashoffset="0" font-family="none" font-weight="none" font-size="none" text-anchor="none" style="mix-blend-mode: normal"><g transform="scale(5.33333,5.33333)"><path d="M11.5,6c-3.01818,0 -5.5,2.48182 -5.5,5.5v17.05859c-0.00765,0.54095 0.27656,1.04412 0.74381,1.31683c0.46725,0.27271 1.04514,0.27271 1.51238,0c0.46725,-0.27271 0.75146,-0.77588 0.74381,-1.31683v-17.05859c0,-1.38182 1.11818,-2.5 2.5,-2.5h25c1.38182,0 2.5,1.11818 2.5,2.5v1.24414c-0.00765,0.54095 0.27656,1.04412 0.74381,1.31683c0.46725,0.27271 1.04514,0.27271 1.51238,0c0.46725,-0.27271 0.75146,-0.77588 0.74381,-1.31683v-1.24414c0,-3.01818 -2.48182,-5.5 -5.5,-5.5zM40.47656,17.0957c-0.82766,0.01293 -1.48844,0.69381 -1.47656,1.52148v17.88281c0,1.38182 -1.11818,2.5 -2.5,2.5h-25c-1.38182,0 -2.5,-1.11818 -2.5,-2.5v-1.75586c0.00765,-0.54095 -0.27656,-1.04412 -0.74381,-1.31683c-0.46725,-0.27271 -1.04514,-0.27271 -1.51238,0c-0.46725,0.27271 -0.75146,0.77588 -0.74381,1.31683v1.75586c0,3.01818 2.48182,5.5 5.5,5.5h25c3.01818,0 5.5,-2.48182 5.5,-5.5v-17.88281c0.00582,-0.40562 -0.15288,-0.7963 -0.43991,-1.08296c-0.28703,-0.28666 -0.67792,-0.44486 -1.08353,-0.43852zM22.35547,22.40039v9.66211c0,1.483 -0.56211,1.86328 -1.53711,1.86328c-1.019,0 -1.72931,-0.63394 -2.19531,-1.46094l-2.41602,1.46094c0.699,1.481 2.41502,3.07422 4.79102,3.07422c2.63,0 4.43164,-1.3987 4.43164,-4.4707v-10.12891zM31.92578,22.40039c-2.619,0 -4.29492,1.67405 -4.29492,3.87305c0,2.387 1.40649,3.51697 3.52148,4.41797l0.73438,0.31445c1.337,0.584 1.99609,0.94031 1.99609,1.94531c0,0.839 -0.63851,1.44727 -1.85352,1.44727c-1.446,0 -2.12881,-0.98377 -2.75781,-2.00977l-2.30469,1.53711c0.861,1.701 2.40786,3.07422 5.13086,3.07422c2.785,0 4.85742,-1.44594 4.85742,-4.08594c0,-2.449 -1.40448,-3.53847 -3.89648,-4.60547l-0.73437,-0.31445c-1.258,-0.544 -1.80273,-0.8993 -1.80273,-1.7793c0,-0.711 0.5453,-1.25586 1.4043,-1.25586c0.842,0 1.38372,0.35486 1.88672,1.25586l2.2832,-1.4668c-0.966,-1.699 -2.30592,-2.34766 -4.16992,-2.34766z"></path></g></g></svg>