<svg xmlns="http://www.w3.org/2000/svg" xmlns:xlink="http://www.w3.org/1999/xlink" viewBox="0,0,256,256" width="100px" height="100px"><g fill="#2ff3ff" fill-rule="nonzero" stroke="none" stroke-width="1" stroke-linecap="butt" stroke-linejoin="miter" stroke-miterlimit="10" stroke-dasharray="" stroke-dashoffset="0" font-family="none" font-weight="none" font-size="none" text-anchor="none" style="mix-blend-mode: normal"><g transform="scale(5.33333,5.33333)"><path d="M10.66406,5c-2.01961,0 -3.64751,1.7625 -3.48828,3.77539l0.56445,7.13477c0.03242,0.54205 0.35525,1.02427 0.84405,1.26079c0.48881,0.23652 1.06727,0.19043 1.51245,-0.12052c0.44518,-0.31095 0.68756,-0.83821 0.63373,-1.37855l-0.56445,-7.13281c-0.02477,-0.31311 0.18366,-0.53906 0.49805,-0.53906h26.67188c0.31439,0 0.52282,0.22595 0.49805,0.53906l-1.54297,19.49023c-0.06526,0.82627 0.55166,1.549 1.37793,1.61426c0.82627,0.06526 1.549,-0.55166 1.61426,-1.37793l1.54102,-19.49023c0.15923,-2.01289 -1.46867,-3.77539 -3.48828,-3.77539zM16.05859,13c-0.582,0 -1.04205,0.49422 -0.99805,1.07422l0.75,10c0.039,0.522 0.47505,0.92578 0.99805,0.92578h12.48047l-0.46875,6.38086l-4.80859,1.53906l-4.65039,-1.5293l-0.14844,-2c-0.058,-0.784 -0.71009,-1.39062 -1.49609,-1.39062c-0.873,0 -1.56109,0.74133 -1.49609,1.61133l0.25,3.33398c0.03,0.403 0.29959,0.748 0.68359,0.875l6.52734,2.1582c0.201,0.067 0.41714,0.06695 0.61914,0.00195l6.7168,-2.1543c0.388,-0.124 0.66141,-0.47291 0.69141,-0.87891l0.73047,-9.87305c0.043,-0.58 -0.41509,-1.07422 -0.99609,-1.07422h-12.7832l-0.43945,-6h13.15039c0.784,0 1.43509,-0.60377 1.49609,-1.38477c0.066,-0.871 -0.62209,-1.61523 -1.49609,-1.61523zM9.76563,20.89453c-0.42338,-0.00232 -0.82803,0.17438 -1.11411,0.4865c-0.28608,0.31212 -0.42694,0.73059 -0.38784,1.15217l1.19922,15.1582c0.10818,1.36794 1.01472,2.55612 2.30859,3.01953l11.04688,3.95898c0.00065,0 0.0013,0 0.00195,0c0.76273,0.27291 1.59664,0.27291 2.35938,0l11.04687,-3.95898c1.2947,-0.46302 2.20037,-1.65105 2.30859,-3.01953l0.28125,-3.55078c0.0549,-0.54113 -0.1874,-1.06958 -0.63325,-1.38111c-0.44585,-0.31153 -1.02539,-0.35734 -1.51464,-0.11971c-0.48925,0.23763 -0.81155,0.72146 -0.84234,1.26449l-0.28125,3.55078c-0.01578,0.19952 -0.14082,0.36466 -0.32812,0.43164c-0.00065,0 -0.0013,0 -0.00195,0l-11.04687,3.95898c-0.10927,0.0391 -0.22863,0.0391 -0.33789,0l-11.04687,-3.95898c-0.1873,-0.06699 -0.31235,-0.23212 -0.32812,-0.43164l-1.20117,-15.1582c-0.05131,-0.78553 -0.70109,-1.39779 -1.48828,-1.40234z"></path></g></g></svg>