<svg xmlns="http://www.w3.org/2000/svg" xmlns:xlink="http://www.w3.org/1999/xlink" viewBox="0,0,256,256" width="100px" height="100px"><g fill="#2ff3ff" fill-rule="nonzero" stroke="none" stroke-width="1" stroke-linecap="butt" stroke-linejoin="miter" stroke-miterlimit="10" stroke-dasharray="" stroke-dashoffset="0" font-family="none" font-weight="none" font-size="none" text-anchor="none" style="mix-blend-mode: normal"><g transform="scale(5.33333,5.33333)"><path d="M10.66406,5c-2.01961,0 -3.64751,1.7625 -3.48828,3.77539l0.27734,3.50586c0.03079,0.54303 0.35309,1.02686 0.84234,1.26449c0.48925,0.23763 1.0688,0.19182 1.51464,-0.11971c0.44585,-0.31153 0.68815,-0.83998 0.63325,-1.38111l-0.27734,-3.50586c-0.02477,-0.31311 0.18366,-0.53906 0.49805,-0.53906h26.67188c0.31439,0 0.52282,0.22595 0.49805,0.53906l-1.37109,17.31055c-0.04231,0.53455 0.20381,1.05106 0.64563,1.35493c0.44182,0.30387 1.01219,0.34892 1.49623,0.11818c0.48404,-0.23074 0.80819,-0.70221 0.85033,-1.23678l1.36914,-17.31055c0.15923,-2.01289 -1.46867,-3.77539 -3.48828,-3.77539zM17.70117,11.93945c-0.54095,-0.00765 -1.04412,0.27656 -1.31683,0.74381c-0.27271,0.46725 -0.27271,1.04514 0,1.51238c0.27271,0.46725 0.77588,0.75146 1.31683,0.74381h12.86914l-0.33203,6.56445h-9.86523c-0.54095,-0.00765 -1.04412,0.27656 -1.31683,0.74381c-0.27271,0.46725 -0.27271,1.04514 0,1.51238c0.27271,0.46725 0.77588,0.75146 1.31683,0.74381h9.71289l-0.33594,6.63477l-5.1875,1.82422l-5.44727,-2.07031v-1.20898c0.00765,-0.54095 -0.27656,-1.04412 -0.74381,-1.31683c-0.46725,-0.27271 -1.04514,-0.27271 -1.51238,0c-0.46725,0.27271 -0.75146,0.77588 -0.74381,1.31683v2.24414c0.00072,0.6221 0.38534,1.17921 0.9668,1.40039l6.92773,2.63477c0.33133,0.12629 0.69669,0.13113 1.03125,0.01367l6.6543,-2.3418c0.57438,-0.20226 0.9695,-0.73166 1,-1.33984l0.45117,-8.91016c0.05232,-0.19946 0.06296,-0.40757 0.03125,-0.61133l0.46875,-9.25781c0.02083,-0.4105 -0.12769,-0.81157 -0.41085,-1.1095c-0.28316,-0.29793 -0.67617,-0.46663 -1.0872,-0.46667zM9.48047,17.26953c-0.42338,-0.00232 -0.82803,0.17438 -1.11411,0.4865c-0.28608,0.31212 -0.42694,0.73059 -0.38784,1.15217l1.48438,18.78516c0.10818,1.36794 1.01472,2.55612 2.30859,3.01953l11.04688,3.95898c0.00065,0 0.0013,0 0.00195,0c0.76273,0.27291 1.59664,0.27291 2.35938,0l11.04687,-3.95898c1.2947,-0.46302 2.20037,-1.65105 2.30859,-3.01953l0.34375,-4.34961c0.0549,-0.54113 -0.1874,-1.06958 -0.63325,-1.38111c-0.44585,-0.31153 -1.02539,-0.35734 -1.51464,-0.11971c-0.48925,0.23763 -0.81155,0.72146 -0.84234,1.26449l-0.34375,4.34961c-0.01578,0.19952 -0.14082,0.3627 -0.32812,0.42969c-0.00065,0.00065 -0.0013,0.0013 -0.00195,0.00195l-11.04687,3.95898c-0.10927,0.03909 -0.22863,0.03909 -0.33789,0l-11.04687,-3.95898c0,-0.00065 0,-0.0013 0,-0.00195c-0.1873,-0.06699 -0.31235,-0.23017 -0.32812,-0.42969l-1.48633,-18.78516c-0.05131,-0.78553 -0.70109,-1.39779 -1.48828,-1.40234z"></path></g></g></svg>